<svg width="32" height="32" viewBox="0 0 32 32" fill="none" xmlns="http://www.w3.org/2000/svg">
<g clip-path="url(#clip0_41_647)">
<path d="M4.44223 10.3652C3.89088 10.3652 3.42307 10.5575 3.03852 10.9421C2.65398 11.3266 2.46165 11.788 2.46165 12.3266V20.5958C2.46165 21.1478 2.65392 21.6152 3.03852 21.9998C3.42307 22.3844 3.89088 22.5767 4.44223 22.5767C4.99319 22.5767 5.45816 22.3844 5.83675 21.9998C6.21458 21.6153 6.40402 21.1478 6.40402 20.5958V12.3266C6.40402 11.788 6.21174 11.3266 5.82714 10.9421C5.44254 10.5575 4.98081 10.3652 4.44223 10.3652Z" fill="#1F2937"/>
<path d="M20.3655 2.94205L21.7309 0.423241C21.8205 0.256486 21.7887 0.128612 21.635 0.0386963C21.4682 -0.0388377 21.34 0.00045004 21.2504 0.153782L19.8659 2.69273C18.6477 2.1541 17.3592 1.88429 16.0004 1.88429C14.6414 1.88429 13.3527 2.15416 12.1349 2.69273L10.7504 0.153782C10.6604 0.00045004 10.5322 -0.0384905 10.3658 0.0386963C10.2118 0.129017 10.1799 0.256486 10.2699 0.423241L11.6354 2.94205C10.2508 3.64813 9.14808 4.63148 8.32761 5.89424C7.50714 7.1577 7.09673 8.53838 7.09673 10.0387H24.8848C24.8848 8.53873 24.4743 7.15799 23.6539 5.89424C22.8334 4.63148 21.737 3.64813 20.3655 2.94205ZM12.4713 6.6057C12.3237 6.75371 12.1473 6.82737 11.9423 6.82737C11.7369 6.82737 11.5641 6.75371 11.4232 6.6057C11.2822 6.45839 11.2118 6.28272 11.2118 6.07703C11.2118 5.87202 11.2822 5.69601 11.4232 5.54835C11.5641 5.40103 11.7373 5.32738 11.9423 5.32738C12.1473 5.32738 12.3237 5.40103 12.4713 5.54835C12.6187 5.69636 12.6927 5.87202 12.6927 6.07703C12.6923 6.28238 12.6183 6.45839 12.4713 6.6057ZM20.5769 6.6057C20.4356 6.75371 20.2625 6.82737 20.0578 6.82737C19.8523 6.82737 19.676 6.75371 19.5287 6.6057C19.3811 6.45839 19.3074 6.28272 19.3074 6.07703C19.3074 5.87202 19.3811 5.69601 19.5287 5.54835C19.676 5.40103 19.8523 5.32738 20.0578 5.32738C20.2628 5.32738 20.4356 5.40103 20.5769 5.54835C20.7179 5.69636 20.7883 5.87202 20.7883 6.07703C20.7883 6.28238 20.7179 6.45839 20.5769 6.6057Z" fill="#1F2937"/>
<path d="M7.17307 23.5383C7.17307 24.1286 7.37807 24.6283 7.78814 25.0383C8.19855 25.4484 8.69823 25.6534 9.28813 25.6534H10.7113L10.7308 30.0193C10.7308 30.5706 10.9231 31.0387 11.3076 31.4233C11.6921 31.8079 12.1539 32.0002 12.6922 32.0002C13.2432 32.0002 13.7113 31.8079 14.0959 31.4233C14.4805 31.0387 14.6727 30.5706 14.6727 30.0193V25.6538H17.3265V30.0193C17.3265 30.5706 17.5187 31.0387 17.9033 31.4233C18.2879 31.8079 18.7556 32.0002 19.307 32.0002C19.858 32.0002 20.3261 31.8079 20.7107 31.4233C21.0953 31.0387 21.2875 30.5706 21.2875 30.0193V25.6538H22.7299C23.3067 25.6538 23.8 25.4487 24.2108 25.0387C24.6208 24.6286 24.8259 24.1289 24.8259 23.5387V10.7305H7.17307V23.5383Z" fill="#1F2937"/>
<path d="M27.5578 10.3652C27.0192 10.3652 26.5578 10.5547 26.1732 10.9325C25.7887 11.311 25.5964 11.776 25.5964 12.3266V20.5958C25.5964 21.1478 25.7886 21.6152 26.1732 21.9998C26.5578 22.3844 27.0196 22.5767 27.5578 22.5767C28.1089 22.5767 28.577 22.3844 28.9616 21.9998C29.3462 21.6152 29.5384 21.1478 29.5384 20.5958V12.3266C29.5384 11.7759 29.3462 11.311 28.9616 10.9325C28.577 10.5547 28.1089 10.3652 27.5578 10.3652Z" fill="#1F2937"/>
</g>
<defs>
<clipPath id="clip0_41_647">
<rect width="32" height="32" fill="white"/>
</clipPath>
</defs>
</svg>
