<svg width="28" height="25" viewBox="0 0 28 25" fill="none" xmlns="http://www.w3.org/2000/svg">
<path d="M22.7684 10.9371C21.8882 6.50711 26.093 3.90895 26.093 3.90895C26.093 3.90895 24.4547 1.53877 21.7014 0.929015C18.9495 0.317926 17.5721 1.08142 16.1975 1.65406C14.8215 2.22809 14.1349 2.22809 14.1349 2.22809C12.1493 2.22809 10.6977 0.125668 6.91448 1.08282C4.30811 1.74057 1.56436 4.74935 1.06862 8.34038C0.572888 11.9327 1.64266 16.5166 3.70523 20.0692C5.76781 23.6245 7.8689 24.9606 9.36017 24.9991C10.8515 25.0361 12.3401 23.9307 14.1349 23.6615C15.9311 23.3951 17.0366 24.3125 18.7984 24.8082C20.5534 25.3026 21.1686 24.8439 23.19 23.1246C25.2168 21.4053 27.0515 16.4741 27.0515 16.4741C27.0515 16.4741 23.6487 15.3699 22.7684 10.9371Z" fill="#1F2937"/>
</svg>
